<svg width="324" height="110" viewBox="0 0 324 110" fill="none" xmlns="http://www.w3.org/2000/svg">
<g filter="url(#filter0_i_2_2)">
<path d="M25.288 109.232C23.3253 109.232 21.7467 108.848 20.552 108.08C19.3573 107.397 18.376 106.117 17.608 104.24L5.064 72.88C4.296 70.9173 3.61333 69.2533 3.016 67.888C2.504 66.4373 2.07733 65.072 1.736 63.792C1.39467 62.4267 1.13867 61.0187 0.968 59.568C0.882667 58.032 0.84 56.24 0.84 54.192V20.4C0.84 19.2907 0.968 18.352 1.224 17.584C1.56533 16.816 2.03467 16.176 2.632 15.664L19.144 1.712C19.5707 1.37066 20.1253 1.11466 20.808 0.943993C21.576 0.687996 22.3867 0.559998 23.24 0.559998H43.592C45.64 0.559998 47.176 1.072 48.2 2.09599C49.3093 3.03466 49.864 4.48533 49.864 6.448V41.776C49.864 42.6293 49.9493 43.44 50.12 44.208C50.2907 44.976 50.504 45.7867 50.76 46.64L51.144 47.536V20.4C51.144 19.2907 51.272 18.352 51.528 17.584C51.8693 16.816 52.3387 16.176 52.936 15.664L69.448 1.712C69.8747 1.37066 70.4293 1.11466 71.112 0.943993C71.88 0.687996 72.6907 0.559998 73.544 0.559998H93.64C95.7733 0.559998 97.2667 1.02933 98.12 1.96799C99.0587 2.90666 99.528 4.4 99.528 6.448V40.24C99.528 42.288 99.4427 44.08 99.272 45.616C99.1867 47.0667 98.9733 48.4747 98.632 49.84C98.2907 51.12 97.8213 52.4853 97.224 53.936C96.712 55.3013 96.072 56.9653 95.304 58.928L82.76 90.288C82.504 91.056 82.1627 91.7387 81.736 92.336C81.3093 92.9333 80.8827 93.4027 80.456 93.744L63.944 107.44C63.2613 108.037 62.4507 108.464 61.512 108.72C60.6587 109.061 59.6773 109.232 58.568 109.232H25.288ZM75.08 94C76.7013 94 78.024 93.7013 79.048 93.104C80.1573 92.5067 81.0107 91.3973 81.608 89.776L94.152 58.416C94.92 56.5387 95.56 54.9173 96.072 53.552C96.584 52.1013 97.0107 50.736 97.352 49.456C97.6933 48.176 97.9067 46.8533 97.992 45.488C98.1627 44.0373 98.248 42.288 98.248 40.24V6.448C98.248 4.82667 97.864 3.67466 97.096 2.992C96.4133 2.224 95.2613 1.84 93.64 1.84H73.544C71.9227 1.84 70.728 2.224 69.96 2.992C69.2773 3.67466 68.936 4.82667 68.936 6.448V41.648C68.936 42.5013 68.8507 43.3547 68.68 44.208C68.5093 45.0613 68.2533 45.9573 67.912 46.896L61.896 64.944C61.64 65.7973 61.3413 66.3947 61 66.736C60.6587 66.992 60.1467 67.12 59.464 67.12H58.056C57.3733 67.12 56.8613 66.992 56.52 66.736C56.1787 66.3947 55.88 65.7973 55.624 64.944L49.608 47.024C49.2667 46.0853 49.0107 45.1893 48.84 44.336C48.6693 43.4827 48.584 42.6293 48.584 41.776V6.448C48.584 4.82667 48.1573 3.67466 47.304 2.992C46.4507 2.224 45.2133 1.84 43.592 1.84H23.24C21.6187 1.84 20.424 2.224 19.656 2.992C18.9733 3.67466 18.632 4.82667 18.632 6.448V40.24C18.632 42.288 18.6747 44.0373 18.76 45.488C18.9307 46.8533 19.1867 48.176 19.528 49.456C19.8693 50.736 20.296 52.1013 20.808 53.552C21.32 54.9173 21.96 56.5387 22.728 58.416L35.272 89.776C35.8693 91.3973 36.68 92.5067 37.704 93.104C38.8133 93.7013 40.1787 94 41.8 94H75.08ZM33.096 13.36H34.376V41.008C34.376 43.2267 34.5467 45.36 34.888 47.408C35.2293 49.3707 35.7413 51.2053 36.424 52.912L44.872 73.392C45.7253 75.6107 46.664 77.488 47.688 79.024C48.7973 80.4747 50.5467 81.2 52.936 81.2H64.2C66.5893 81.2 68.296 80.4747 69.32 79.024C70.4293 77.488 71.4107 75.6107 72.264 73.392L80.712 52.912C81.3947 51.2053 81.9067 49.3707 82.248 47.408C82.5893 45.36 82.76 43.2267 82.76 41.008V13.36H84.04V41.008C84.04 43.3973 83.8693 45.616 83.528 47.664C83.272 49.6267 82.76 51.5467 81.992 53.424L73.544 73.904C72.52 76.3787 71.368 78.4267 70.088 80.048C68.808 81.6693 66.8453 82.48 64.2 82.48H52.936C50.2907 82.48 48.328 81.6693 47.048 80.048C45.768 78.4267 44.616 76.3787 43.592 73.904L35.144 53.424C34.376 51.5467 33.8213 49.6267 33.48 47.664C33.224 45.616 33.096 43.3973 33.096 41.008V13.36ZM171.858 44.72C173.394 44.72 174.503 44.3787 175.186 43.696C175.869 43.0133 176.935 41.5627 178.386 39.344L194.002 15.536C194.514 14.6827 195.069 14.128 195.666 13.872C196.349 13.5307 197.031 13.36 197.714 13.36H199.89C201.085 13.36 201.938 13.7013 202.45 14.384C203.047 14.9813 203.346 15.9627 203.346 17.328V82.48H202.066V17.328C202.066 16.6453 201.895 16.048 201.554 15.536C201.298 14.9387 200.743 14.64 199.89 14.64H197.97C197.373 14.64 196.861 14.7253 196.434 14.896C196.007 15.0667 195.538 15.5787 195.026 16.432L179.41 39.984C177.874 42.288 176.679 43.8667 175.826 44.72C175.058 45.5733 173.735 46 171.858 46C169.981 46 168.615 45.5733 167.762 44.72C166.994 43.8667 165.842 42.288 164.306 39.984L148.69 16.432C148.178 15.5787 147.666 15.0667 147.154 14.896C146.727 14.7253 146.215 14.64 145.618 14.64H143.698C142.845 14.64 142.29 14.9387 142.034 15.536C141.778 16.048 141.65 16.6453 141.65 17.328V82.48H140.37V17.328C140.37 15.9627 140.626 14.9813 141.138 14.384C141.735 13.7013 142.589 13.36 143.698 13.36H145.874C146.557 13.36 147.239 13.5307 147.922 13.872C148.605 14.128 149.202 14.6827 149.714 15.536L165.33 39.344C166.781 41.5627 167.847 43.0133 168.53 43.696C169.213 44.3787 170.322 44.72 171.858 44.72ZM150.482 94C152.103 94 153.255 93.6587 153.938 92.976C154.706 92.208 155.09 91.0133 155.09 89.392V44.336L162.642 58.288C163.41 59.7387 164.306 60.8053 165.33 61.488C166.439 62.0853 167.805 62.384 169.426 62.384H174.546C176.167 62.384 177.49 62.0853 178.514 61.488C179.623 60.8053 180.562 59.7387 181.33 58.288L188.882 44.336V89.392C188.882 91.0133 189.223 92.208 189.906 92.976C190.674 93.6587 191.869 94 193.49 94H213.202C214.823 94 215.975 93.6587 216.658 92.976C217.426 92.208 217.81 91.0133 217.81 89.392V6.448C217.81 4.82667 217.426 3.67466 216.658 2.992C215.975 2.224 214.823 1.84 213.202 1.84H192.466C191.101 1.84 189.949 2.13866 189.01 2.73599C188.157 3.33333 187.346 4.31466 186.578 5.67999L175.186 26.544C174.759 27.312 174.375 27.8667 174.034 28.208C173.778 28.5493 173.394 28.72 172.882 28.72H171.73C171.218 28.72 170.791 28.5493 170.45 28.208C170.194 27.8667 169.853 27.312 169.426 26.544L157.906 5.67999C157.138 4.31466 156.285 3.33333 155.346 2.73599C154.493 2.13866 153.383 1.84 152.018 1.84H131.41C129.789 1.84 128.594 2.224 127.826 2.992C127.143 3.67466 126.802 4.82667 126.802 6.448V89.392C126.802 91.0133 127.143 92.208 127.826 92.976C128.594 93.6587 129.789 94 131.41 94H150.482ZM154.578 94.128L137.938 107.952C137.597 108.293 137.042 108.592 136.274 108.848C135.591 109.104 134.823 109.232 133.97 109.232H114.898C112.85 109.232 111.357 108.763 110.418 107.824C109.479 106.885 109.01 105.392 109.01 103.344V20.4C109.01 19.2907 109.138 18.352 109.394 17.584C109.735 16.816 110.205 16.176 110.802 15.664L127.314 1.712C127.741 1.37066 128.295 1.11466 128.978 0.943993C129.746 0.687996 130.557 0.559998 131.41 0.559998H152.018C153.639 0.559998 154.962 0.901329 155.986 1.58399C157.095 2.26666 158.119 3.41866 159.058 5.03999L167.762 21.04L168.914 18.992C169.255 18.3947 169.597 17.84 169.938 17.328C170.365 16.7307 170.791 16.2613 171.218 15.92L187.73 2.09599C188.413 1.58399 189.095 1.19999 189.778 0.943993C190.546 0.687996 191.442 0.559998 192.466 0.559998H213.202C215.25 0.559998 216.743 1.02933 217.682 1.96799C218.621 2.90666 219.09 4.4 219.09 6.448V89.392C219.09 90.5013 218.919 91.44 218.578 92.208C218.322 92.976 217.895 93.616 217.298 94.128L200.658 107.952C200.317 108.293 199.762 108.592 198.994 108.848C198.311 109.104 197.543 109.232 196.69 109.232H176.978C174.845 109.232 173.309 108.763 172.37 107.824C171.517 106.885 171.09 105.392 171.09 103.344V69.552L163.538 75.824C162.855 76.4213 162.045 76.8907 161.106 77.232C160.253 77.488 159.229 77.616 158.034 77.616H156.37V89.392C156.37 90.5013 156.199 91.44 155.858 92.208C155.602 92.976 155.175 93.616 154.578 94.128ZM301.55 109.232H236.398C234.35 109.232 232.857 108.763 231.918 107.824C230.979 106.885 230.51 105.392 230.51 103.344V20.4C230.51 19.2907 230.638 18.352 230.894 17.584C231.235 16.816 231.705 16.176 232.302 15.664L248.814 1.712C249.241 1.37066 249.795 1.11466 250.478 0.943993C251.246 0.687996 252.057 0.559998 252.91 0.559998H272.75C274.798 0.559998 276.291 1.02933 277.23 1.96799C278.169 2.90666 278.638 4.4 278.638 6.448V58.544L278.894 58.288L295.406 44.336C295.833 43.9947 296.387 43.7387 297.07 43.568C297.838 43.312 298.649 43.184 299.502 43.184H318.062C320.11 43.184 321.603 43.6533 322.542 44.592C323.481 45.5307 323.95 47.024 323.95 49.072V89.392C323.95 90.5013 323.779 91.44 323.438 92.208C323.182 92.976 322.755 93.616 322.158 94.128L305.518 107.952C305.177 108.293 304.622 108.592 303.854 108.848C303.171 109.104 302.403 109.232 301.55 109.232ZM318.062 94C319.683 94 320.835 93.6587 321.518 92.976C322.286 92.208 322.67 91.0133 322.67 89.392V49.072C322.67 47.4507 322.286 46.2987 321.518 45.616C320.835 44.848 319.683 44.464 318.062 44.464H299.502C297.881 44.464 296.686 44.848 295.918 45.616C295.235 46.2987 294.894 47.4507 294.894 49.072V69.808H277.358V6.448C277.358 4.82667 276.974 3.67466 276.206 2.992C275.523 2.224 274.371 1.84 272.75 1.84H252.91C251.289 1.84 250.094 2.224 249.326 2.992C248.643 3.67466 248.302 4.82667 248.302 6.448V89.392C248.302 91.0133 248.643 92.208 249.326 92.976C250.094 93.6587 251.289 94 252.91 94H318.062ZM262.254 82.48V13.36H263.534V81.2H308.078V55.984H309.358V82.48H262.254Z" fill="#4AB883"/>
</g>
<defs>
<filter id="filter0_i_2_2" x="0.839996" y="0.559998" width="323.11" height="112.672" filterUnits="userSpaceOnUse" color-interpolation-filters="sRGB">
<feFlood flood-opacity="0" result="BackgroundImageFix"/>
<feBlend mode="normal" in="SourceGraphic" in2="BackgroundImageFix" result="shape"/>
<feColorMatrix in="SourceAlpha" type="matrix" values="0 0 0 0 0 0 0 0 0 0 0 0 0 0 0 0 0 0 127 0" result="hardAlpha"/>
<feOffset dy="4"/>
<feGaussianBlur stdDeviation="2"/>
<feComposite in2="hardAlpha" operator="arithmetic" k2="-1" k3="1"/>
<feColorMatrix type="matrix" values="0 0 0 0 0 0 0 0 0 0 0 0 0 0 0 0 0 0 0.25 0"/>
<feBlend mode="normal" in2="shape" result="effect1_innerShadow_2_2"/>
</filter>
</defs>
</svg>
